<svg xmlns="http://www.w3.org/2000/svg" xmlns:xlink="http://www.w3.org/1999/xlink" xmlns:lucid="lucid" width="1200" height="428"><g transform="translate(-520.5 -240)" lucid:page-tab-id="0_0"><path d="M0 0h1760v1360H0z" fill="#fff"/><path d="M540.5 265a5 5 0 0 1 5-5h270a5 5 0 0 1 5 5v94a5 5 0 0 1-5 5h-270a5 5 0 0 1-5-5z" fill="#fff"/><path d="M540.5 300v-35a5 5 0 0 1 5-5h270a5 5 0 0 1 5 5v35" fill="#ced4db"/><path d="M540.5 265a5 5 0 0 1 5-5h270a5 5 0 0 1 5 5v94a5 5 0 0 1-5 5h-270a5 5 0 0 1-5-5zM540.5 300h280M680.5 300v64" stroke="#282c33" fill="none"/><use xlink:href="#a" transform="matrix(1,0,0,1,550.5,260) translate(119.05 23.6)"/><use xlink:href="#b" transform="matrix(1,0,0,1,545.5,302.5) translate(0 17.1)"/><use xlink:href="#c" transform="matrix(1,0,0,1,685.5,302.5) translate(0 17.1)"/><use xlink:href="#d" transform="matrix(1,0,0,1,545.5,334.5) translate(0 17.1)"/><use xlink:href="#e" transform="matrix(1,0,0,1,685.5,334.5) translate(0 17.1)"/><path d="M540.5 485a5 5 0 0 1 5-5h270a5 5 0 0 1 5 5v158a5 5 0 0 1-5 5h-270a5 5 0 0 1-5-5z" fill="#fff"/><path d="M540.5 520v-35a5 5 0 0 1 5-5h270a5 5 0 0 1 5 5v35" fill="#ced4db"/><path d="M540.5 485a5 5 0 0 1 5-5h270a5 5 0 0 1 5 5v158a5 5 0 0 1-5 5h-270a5 5 0 0 1-5-5zM540.5 520h280M680.5 520v128" stroke="#282c33" fill="none"/><use xlink:href="#f" transform="matrix(1,0,0,1,550.5,480) translate(113.05 23.6)"/><use xlink:href="#g" transform="matrix(1,0,0,1,545.5,522.5) translate(0 17.1)"/><use xlink:href="#c" transform="matrix(1,0,0,1,685.5,522.5) translate(0 17.1)"/><use xlink:href="#b" transform="matrix(1,0,0,1,545.5,554.5) translate(0 17.1)"/><use xlink:href="#h" transform="matrix(1,0,0,1,685.5,554.5) translate(0 17.1)"/><use xlink:href="#i" transform="matrix(1,0,0,1,685.5,554.5) translate(63.900000000000006 17.1)"/><use xlink:href="#j" transform="matrix(1,0,0,1,545.5,586.5) translate(0 17.1)"/><use xlink:href="#e" transform="matrix(1,0,0,1,685.5,586.5) translate(0 17.1)"/><use xlink:href="#k" transform="matrix(1,0,0,1,545.5,618.5) translate(0 17.1)"/><use xlink:href="#c" transform="matrix(1,0,0,1,685.5,618.5) translate(0 17.1)"/><path d="M680.5 440.03v-55.56" stroke="#3a414a" fill="none"/><path d="M670.5 479.3l10-20 10 20" stroke="#3a414a" fill="#fff" fill-opacity="0"/><path d="M680.5 479.3v-20M690.5 449.3c0 5.53-4.48 10-10 10s-10-4.47-10-10c0-5.52 4.48-10 10-10s10 4.48 10 10M670.5 374.47h20M680.5 364.47v20M670.5 384.47h20" stroke="#3a414a" fill="#fff"/><path d="M1420.5 501a5 5 0 0 1 5-5h270a5 5 0 0 1 5 5v126a5 5 0 0 1-5 5h-270a5 5 0 0 1-5-5z" fill="#fff"/><path d="M1420.5 536v-35a5 5 0 0 1 5-5h270a5 5 0 0 1 5 5v35" fill="#ced4db"/><path d="M1420.5 501a5 5 0 0 1 5-5h270a5 5 0 0 1 5 5v126a5 5 0 0 1-5 5h-270a5 5 0 0 1-5-5zM1420.5 536h280M1560.5 536v96" stroke="#282c33" fill="none"/><use xlink:href="#l" transform="matrix(1,0,0,1,1430.5,496) translate(93.05 23.6)"/><use xlink:href="#m" transform="matrix(1,0,0,1,1425.5,538.5) translate(0 17.1)"/><use xlink:href="#c" transform="matrix(1,0,0,1,1565.5,538.5) translate(0 17.1)"/><use xlink:href="#b" transform="matrix(1,0,0,1,1425.5,570.5) translate(0 17.1)"/><use xlink:href="#h" transform="matrix(1,0,0,1,1565.5,570.5) translate(0 17.1)"/><use xlink:href="#i" transform="matrix(1,0,0,1,1565.5,570.5) translate(63.900000000000006 17.1)"/><use xlink:href="#j" transform="matrix(1,0,0,1,1425.5,602.5) translate(0 17.1)"/><use xlink:href="#e" transform="matrix(1,0,0,1,1565.5,602.5) translate(0 17.1)"/><path d="M840.97 316h707.53a12 12 0 0 1 12 12v128.03" stroke="#3a414a" fill="none"/><path d="M830.97 326v-20M820.97 316h20M840.97 326v-20" stroke="#3a414a" fill="#fff"/><path d="M1550.5 495.3l10-20 10 20" stroke="#3a414a" fill="#fff" fill-opacity="0"/><path d="M1560.5 495.3v-20M1570.5 465.3c0 5.53-4.48 10-10 10s-10-4.47-10-10c0-5.52 4.48-10 10-10s10 4.48 10 10" stroke="#3a414a" fill="#fff"/><path d="M980.5 485a5 5 0 0 1 5-5h270a5 5 0 0 1 5 5v126a5 5 0 0 1-5 5h-270a5 5 0 0 1-5-5z" fill="#fff"/><path d="M980.5 520v-35a5 5 0 0 1 5-5h270a5 5 0 0 1 5 5v35" fill="#ced4db"/><path d="M980.5 485a5 5 0 0 1 5-5h270a5 5 0 0 1 5 5v126a5 5 0 0 1-5 5h-270a5 5 0 0 1-5-5zM980.5 520h280M1120.5 520v96" stroke="#282c33" fill="none"/><use xlink:href="#n" transform="matrix(1,0,0,1,990.5,480) translate(88.55 23.6)"/><use xlink:href="#o" transform="matrix(1,0,0,1,985.5,522.5) translate(0 17.1)"/><use xlink:href="#c" transform="matrix(1,0,0,1,1125.5,522.5) translate(0 17.1)"/><use xlink:href="#g" transform="matrix(1,0,0,1,985.5,554.5) translate(0 17.1)"/><use xlink:href="#h" transform="matrix(1,0,0,1,1125.5,554.5) translate(0 17.1)"/><use xlink:href="#i" transform="matrix(1,0,0,1,1125.5,554.5) translate(63.900000000000006 17.1)"/><use xlink:href="#m" transform="matrix(1,0,0,1,985.5,586.5) translate(0 17.1)"/><use xlink:href="#h" transform="matrix(1,0,0,1,1125.5,586.5) translate(0 17.1)"/><use xlink:href="#i" transform="matrix(1,0,0,1,1125.5,586.5) translate(63.900000000000006 17.1)"/><path d="M1300.48 568H1400.03" stroke="#3a414a" fill="none"/><path d="M1261.2 558l20 10-20 10" stroke="#3a414a" fill="#fff" fill-opacity="0"/><path d="M1261.2 568h20M1301.2 568c0 5.52-4.47 10-10 10-5.52 0-10-4.48-10-10s4.48-10 10-10c5.53 0 10 4.48 10 10M1410.03 558v20M1420.03 568h-20M1400.03 558v20" stroke="#3a414a" fill="#fff"/><path d="M940.54 568h-99.56" stroke="#3a414a" fill="none"/><path d="M979.82 578l-20-10 20-10" stroke="#3a414a" fill="#fff" fill-opacity="0"/><path d="M979.82 568h-20M959.82 568c0 5.52-4.48 10-10 10-5.53 0-10-4.48-10-10s4.47-10 10-10c5.52 0 10 4.48 10 10M830.97 578v-20M820.97 568h20M840.97 578v-20" stroke="#3a414a" fill="#fff"/><defs><path fill="#333" d="M24 0v-261h32V0H24" id="p"/><path fill="#333" d="M24-231v-30h32v30H24zM24 0v-190h32V0H24" id="q"/><path fill="#333" d="M135-143c-3-34-86-38-87 0 15 53 115 12 119 90S17 21 10-45l28-5c4 36 97 45 98 0-10-56-113-15-118-90-4-57 82-63 122-42 12 7 21 19 24 35" id="r"/><path fill="#333" d="M59-47c-2 24 18 29 38 22v24C64 9 27 4 27-40v-127H5v-23h24l9-43h21v43h35v23H59v120" id="s"/><g id="a"><use transform="matrix(0.05,0,0,0.05,0,0)" xlink:href="#p"/><use transform="matrix(0.05,0,0,0.05,3.95,0)" xlink:href="#q"/><use transform="matrix(0.05,0,0,0.05,7.9,0)" xlink:href="#r"/><use transform="matrix(0.05,0,0,0.05,16.9,0)" xlink:href="#s"/></g><path fill="#333" d="M-5 72V49h209v23H-5" id="t"/><path fill="#333" d="M85-194c31 0 48 13 60 33l-1-100h32l1 261h-30c-2-10 0-23-3-31C134-8 116 4 85 4 32 4 16-35 15-94c0-66 23-100 70-100zm9 24c-40 0-46 34-46 75 0 40 6 74 45 74 42 0 51-32 51-76 0-42-9-74-50-73" id="u"/><g id="b"><use transform="matrix(0.05,0,0,0.05,0,0)" xlink:href="#p"/><use transform="matrix(0.05,0,0,0.05,3.95,0)" xlink:href="#q"/><use transform="matrix(0.05,0,0,0.05,7.9,0)" xlink:href="#r"/><use transform="matrix(0.05,0,0,0.05,16.9,0)" xlink:href="#s"/><use transform="matrix(0.05,0,0,0.05,21.9,0)" xlink:href="#t"/><use transform="matrix(0.05,0,0,0.05,31.899999999999995,0)" xlink:href="#q"/><use transform="matrix(0.05,0,0,0.05,35.85,0)" xlink:href="#u"/></g><path fill="#333" d="M117-194c89-4 53 116 60 194h-32v-121c0-31-8-49-39-48C34-167 62-67 57 0H25l-1-190h30c1 10-1 24 2 32 11-22 29-35 61-36" id="v"/><path fill="#333" d="M100-194c63 0 86 42 84 106H49c0 40 14 67 53 68 26 1 43-12 49-29l28 8c-11 28-37 45-77 45C44 4 14-33 15-96c1-61 26-98 85-98zm52 81c6-60-76-77-97-28-3 7-6 17-6 28h103" id="w"/><path fill="#333" d="M177-190C167-65 218 103 67 71c-23-6-38-20-44-43l32-5c15 47 100 32 89-28v-30C133-14 115 1 83 1 29 1 15-40 15-95c0-56 16-97 71-98 29-1 48 16 59 35 1-10 0-23 2-32h30zM94-22c36 0 50-32 50-73 0-42-14-75-50-75-39 0-46 34-46 75s6 73 46 73" id="x"/><path fill="#333" d="M114-163C36-179 61-72 57 0H25l-1-190h30c1 12-1 29 2 39 6-27 23-49 58-41v29" id="y"/><g id="c"><use transform="matrix(0.05,0,0,0.05,0,0)" xlink:href="#q"/><use transform="matrix(0.05,0,0,0.05,3.95,0)" xlink:href="#v"/><use transform="matrix(0.05,0,0,0.05,13.949999999999998,0)" xlink:href="#s"/><use transform="matrix(0.05,0,0,0.05,18.95,0)" xlink:href="#w"/><use transform="matrix(0.05,0,0,0.05,28.950000000000003,0)" xlink:href="#x"/><use transform="matrix(0.05,0,0,0.05,38.95,0)" xlink:href="#w"/><use transform="matrix(0.05,0,0,0.05,48.95,0)" xlink:href="#y"/></g><path fill="#333" d="M96-169c-40 0-48 33-48 73s9 75 48 75c24 0 41-14 43-38l32 2c-6 37-31 61-74 61-59 0-76-41-82-99-10-93 101-131 147-64 4 7 5 14 7 22l-32 3c-4-21-16-35-41-35" id="z"/><path fill="#333" d="M115-194c55 1 70 41 70 98S169 2 115 4C84 4 66-9 55-30l1 105H24l-1-265h31l2 30c10-21 28-34 59-34zm-8 174c40 0 45-34 45-75s-6-73-45-74c-42 0-51 32-51 76 0 43 10 73 51 73" id="A"/><path fill="#333" d="M100-194c62-1 85 37 85 99 1 63-27 99-86 99S16-35 15-95c0-66 28-99 85-99zM99-20c44 1 53-31 53-75 0-43-8-75-51-75s-53 32-53 75 10 74 51 75" id="B"/><g id="d"><use transform="matrix(0.05,0,0,0.05,0,0)" xlink:href="#u"/><use transform="matrix(0.05,0,0,0.05,10,0)" xlink:href="#w"/><use transform="matrix(0.05,0,0,0.05,20,0)" xlink:href="#r"/><use transform="matrix(0.05,0,0,0.05,29,0)" xlink:href="#z"/><use transform="matrix(0.05,0,0,0.05,38,0)" xlink:href="#y"/><use transform="matrix(0.05,0,0,0.05,43.95,0)" xlink:href="#q"/><use transform="matrix(0.05,0,0,0.05,47.900000000000006,0)" xlink:href="#A"/><use transform="matrix(0.05,0,0,0.05,57.900000000000006,0)" xlink:href="#s"/><use transform="matrix(0.05,0,0,0.05,62.900000000000006,0)" xlink:href="#q"/><use transform="matrix(0.05,0,0,0.05,66.85000000000001,0)" xlink:href="#B"/><use transform="matrix(0.05,0,0,0.05,76.85000000000001,0)" xlink:href="#v"/></g><path fill="#333" d="M141 0L90-78 38 0H4l68-98-65-92h35l48 74 47-74h35l-64 92 68 98h-35" id="C"/><g id="e"><use transform="matrix(0.05,0,0,0.05,0,0)" xlink:href="#s"/><use transform="matrix(0.05,0,0,0.05,5,0)" xlink:href="#w"/><use transform="matrix(0.05,0,0,0.05,15,0)" xlink:href="#C"/><use transform="matrix(0.05,0,0,0.05,24,0)" xlink:href="#s"/></g><path fill="#333" d="M210-169c-67 3-38 105-44 169h-31v-121c0-29-5-50-35-48C34-165 62-65 56 0H25l-1-190h30c1 10-1 24 2 32 10-44 99-50 107 0 11-21 27-35 58-36 85-2 47 119 55 194h-31v-121c0-29-5-49-35-48" id="D"/><g id="f"><use transform="matrix(0.05,0,0,0.05,0,0)" xlink:href="#q"/><use transform="matrix(0.05,0,0,0.05,3.95,0)" xlink:href="#s"/><use transform="matrix(0.05,0,0,0.05,8.95,0)" xlink:href="#w"/><use transform="matrix(0.05,0,0,0.05,18.95,0)" xlink:href="#D"/></g><g id="g"><use transform="matrix(0.05,0,0,0.05,0,0)" xlink:href="#q"/><use transform="matrix(0.05,0,0,0.05,3.95,0)" xlink:href="#s"/><use transform="matrix(0.05,0,0,0.05,8.95,0)" xlink:href="#w"/><use transform="matrix(0.05,0,0,0.05,18.95,0)" xlink:href="#D"/><use transform="matrix(0.05,0,0,0.05,33.9,0)" xlink:href="#t"/><use transform="matrix(0.05,0,0,0.05,43.9,0)" xlink:href="#q"/><use transform="matrix(0.05,0,0,0.05,47.85,0)" xlink:href="#u"/></g><path fill="#333" d="M68-38c1 34 0 65-14 84H32c9-13 17-26 17-46H33v-38h35" id="E"/><g id="h"><use transform="matrix(0.05,0,0,0.05,0,0)" xlink:href="#q"/><use transform="matrix(0.05,0,0,0.05,3.95,0)" xlink:href="#v"/><use transform="matrix(0.05,0,0,0.05,13.949999999999998,0)" xlink:href="#s"/><use transform="matrix(0.05,0,0,0.05,18.95,0)" xlink:href="#w"/><use transform="matrix(0.05,0,0,0.05,28.950000000000003,0)" xlink:href="#x"/><use transform="matrix(0.05,0,0,0.05,38.95,0)" xlink:href="#w"/><use transform="matrix(0.05,0,0,0.05,48.95,0)" xlink:href="#y"/><use transform="matrix(0.05,0,0,0.05,53.900000000000006,0)" xlink:href="#E"/></g><path fill="#333" d="M63-220v92h138v28H63V0H30v-248h175v28H63" id="F"/><path fill="#333" d="M194 0L95-120 63-95V0H30v-248h33v124l119-124h40L117-140 236 0h-42" id="G"/><g id="i"><use transform="matrix(0.05,0,0,0.05,0,0)" xlink:href="#F"/><use transform="matrix(0.05,0,0,0.05,10.950000000000001,0)" xlink:href="#G"/></g><path fill="#333" d="M141-36C126-15 110 5 73 4 37 3 15-17 15-53c-1-64 63-63 125-63 3-35-9-54-41-54-24 1-41 7-42 31l-33-3c5-37 33-52 76-52 45 0 72 20 72 64v82c-1 20 7 32 28 27v20c-31 9-61-2-59-35zM48-53c0 20 12 33 32 33 41-3 63-29 60-74-43 2-92-5-92 41" id="H"/><g id="j"><use transform="matrix(0.05,0,0,0.05,0,0)" xlink:href="#v"/><use transform="matrix(0.05,0,0,0.05,10,0)" xlink:href="#H"/><use transform="matrix(0.05,0,0,0.05,20,0)" xlink:href="#D"/><use transform="matrix(0.05,0,0,0.05,34.95,0)" xlink:href="#w"/></g><path fill="#333" d="M145-31C134-9 116 4 85 4 32 4 16-35 15-94c0-59 17-99 70-100 32-1 48 14 60 33 0-11-1-24 2-32h30l-1 268h-32zM93-21c41 0 51-33 51-76s-8-73-50-73c-40 0-46 35-46 75s5 74 45 74" id="I"/><path fill="#333" d="M84 4C-5 8 30-112 23-190h32v120c0 31 7 50 39 49 72-2 45-101 50-169h31l1 190h-30c-1-10 1-25-2-33-11 22-28 36-60 37" id="J"/><path fill="#333" d="M179-190L93 31C79 59 56 82 12 73V49c39 6 53-20 64-50L1-190h34L92-34l54-156h33" id="K"/><g id="k"><use transform="matrix(0.05,0,0,0.05,0,0)" xlink:href="#I"/><use transform="matrix(0.05,0,0,0.05,10,0)" xlink:href="#J"/><use transform="matrix(0.05,0,0,0.05,20,0)" xlink:href="#H"/><use transform="matrix(0.05,0,0,0.05,30,0)" xlink:href="#v"/><use transform="matrix(0.05,0,0,0.05,40,0)" xlink:href="#s"/><use transform="matrix(0.05,0,0,0.05,45,0)" xlink:href="#q"/><use transform="matrix(0.05,0,0,0.05,48.95,0)" xlink:href="#s"/><use transform="matrix(0.05,0,0,0.05,53.95,0)" xlink:href="#K"/></g><g id="l"><use transform="matrix(0.05,0,0,0.05,0,0)" xlink:href="#z"/><use transform="matrix(0.05,0,0,0.05,9,0)" xlink:href="#B"/><use transform="matrix(0.05,0,0,0.05,19,0)" xlink:href="#v"/><use transform="matrix(0.05,0,0,0.05,29,0)" xlink:href="#s"/><use transform="matrix(0.05,0,0,0.05,34,0)" xlink:href="#H"/><use transform="matrix(0.05,0,0,0.05,44,0)" xlink:href="#q"/><use transform="matrix(0.05,0,0,0.05,47.95,0)" xlink:href="#v"/><use transform="matrix(0.05,0,0,0.05,57.95,0)" xlink:href="#w"/><use transform="matrix(0.05,0,0,0.05,67.95,0)" xlink:href="#y"/></g><g id="m"><use transform="matrix(0.05,0,0,0.05,0,0)" xlink:href="#z"/><use transform="matrix(0.05,0,0,0.05,9,0)" xlink:href="#B"/><use transform="matrix(0.05,0,0,0.05,19,0)" xlink:href="#v"/><use transform="matrix(0.05,0,0,0.05,29,0)" xlink:href="#s"/><use transform="matrix(0.05,0,0,0.05,34,0)" xlink:href="#H"/><use transform="matrix(0.05,0,0,0.05,44,0)" xlink:href="#q"/><use transform="matrix(0.05,0,0,0.05,47.95,0)" xlink:href="#v"/><use transform="matrix(0.05,0,0,0.05,57.95,0)" xlink:href="#w"/><use transform="matrix(0.05,0,0,0.05,67.95,0)" xlink:href="#y"/><use transform="matrix(0.05,0,0,0.05,73.9,0)" xlink:href="#t"/><use transform="matrix(0.05,0,0,0.05,83.9,0)" xlink:href="#q"/><use transform="matrix(0.05,0,0,0.05,87.85000000000001,0)" xlink:href="#u"/></g><g id="n"><use transform="matrix(0.05,0,0,0.05,0,0)" xlink:href="#A"/><use transform="matrix(0.05,0,0,0.05,10,0)" xlink:href="#p"/><use transform="matrix(0.05,0,0,0.05,13.949999999999998,0)" xlink:href="#H"/><use transform="matrix(0.05,0,0,0.05,23.95,0)" xlink:href="#z"/><use transform="matrix(0.05,0,0,0.05,32.95,0)" xlink:href="#w"/><use transform="matrix(0.05,0,0,0.05,42.95,0)" xlink:href="#D"/><use transform="matrix(0.05,0,0,0.05,57.900000000000006,0)" xlink:href="#w"/><use transform="matrix(0.05,0,0,0.05,67.9,0)" xlink:href="#v"/><use transform="matrix(0.05,0,0,0.05,77.9,0)" xlink:href="#s"/></g><g id="o"><use transform="matrix(0.05,0,0,0.05,0,0)" xlink:href="#A"/><use transform="matrix(0.05,0,0,0.05,10,0)" xlink:href="#p"/><use transform="matrix(0.05,0,0,0.05,13.949999999999998,0)" xlink:href="#H"/><use transform="matrix(0.05,0,0,0.05,23.95,0)" xlink:href="#z"/><use transform="matrix(0.05,0,0,0.05,32.95,0)" xlink:href="#w"/><use transform="matrix(0.05,0,0,0.05,42.95,0)" xlink:href="#D"/><use transform="matrix(0.05,0,0,0.05,57.900000000000006,0)" xlink:href="#w"/><use transform="matrix(0.05,0,0,0.05,67.9,0)" xlink:href="#v"/><use transform="matrix(0.05,0,0,0.05,77.9,0)" xlink:href="#s"/><use transform="matrix(0.05,0,0,0.05,82.9,0)" xlink:href="#t"/><use transform="matrix(0.05,0,0,0.05,92.9,0)" xlink:href="#q"/><use transform="matrix(0.05,0,0,0.05,96.85000000000001,0)" xlink:href="#u"/></g></defs></g></svg>